<?xml version="1.0" encoding="UTF-8"?>
<svg width="75px" height="78px" viewBox="0 0 75 78" version="1.1" xmlns="http://www.w3.org/2000/svg" xmlns:xlink="http://www.w3.org/1999/xlink">
    <!-- Generator: Sketch 55.2 (78181) - https://sketchapp.com -->
    <title>Shape</title>
    <desc>Created with Sketch.</desc>
    <g id="Symbols" stroke="none" stroke-width="1" fill="none" fill-rule="evenodd">
        <g id="Logo" transform="translate(-2.000000, 0.000000)" fill="" fill-rule="nonzero">
            <g id="New-Logo" transform="translate(2.000000, 0.000000)">
                <path d="M36.0497102,77.8900808 L56.2321851,42.9330088 L68.6138321,64.3786505 C61.4611664,72.7171789 50.8475177,78 39,78 C38.007474,78 37.0236076,77.9629238 36.0497102,77.8900808 L36.0497102,77.8900808 Z M31.8594694,77.3477908 C19.4751129,75.0563273 9.14337043,66.9135045 3.83912568,55.8942058 L44.2491886,55.8881677 L31.8594694,77.3477908 L31.8594694,77.3477908 Z M2.21733675,51.9948002 C0.781338346,47.9301437 0,43.5563176 0,39 C0,30.8434774 2.50392468,23.2717778 6.78504019,17.0116351 L26.9825827,51.9948002 L2.21733511,51.9948002 L2.21733675,51.9948002 Z M9.43476643,13.5648025 C16.5868638,5.25894484 27.1792858,2.84217094e-14 39,2.84217094e-14 C39.9909538,2.84217094e-14 40.9732755,0.036958815 41.9456617,0.109573217 L21.9018273,34.8384793 L9.43476643,13.564802 L9.43476643,13.5648025 Z M46.1337093,0.650947747 C58.5208698,2.94064164 68.8552828,11.0841786 74.1605871,22.1052 L33.7470911,22.1052 L46.1337093,0.650947747 L46.1337093,0.650947747 Z" id="Shape"></path>
            </g>
        </g>
    </g>
</svg>