<?xml version="1.0" encoding="UTF-8"?>
<svg width="476px" height="500px" viewBox="0 0 476 500" version="1.1" xmlns="http://www.w3.org/2000/svg" xmlns:xlink="http://www.w3.org/1999/xlink">
    <!-- Generator: Sketch 55.2 (78181) - https://sketchapp.com -->
    <title>Shape</title>
    <desc>Created with Sketch.</desc>
    <g id="Page-1" stroke="none" stroke-width="1" fill="none" fill-rule="evenodd">
        <g id="Artboard-Copy-3" transform="translate(-12.000000, 0.000000)" fill="">
            <path d="M243.087886,499.29539 L372.462725,275.211595 L451.832257,412.683657 C405.981836,466.135762 337.945626,500 262,500 C255.637654,500 249.330818,499.762332 243.087886,499.29539 L243.087886,499.29539 Z M216.227368,495.819172 C136.840467,481.130303 70.6113489,428.932721 36.60978,358.296191 L295.648645,358.257485 L216.227368,495.819172 L216.227368,495.819172 Z M26.2136971,333.300001 C17.0085791,307.244511 12,279.207164 12,250 C12,197.714599 28.0507992,149.178063 55.4938474,109.048943 L184.965274,333.300001 L26.2136866,333.300001 L26.2136971,333.300001 Z M72.479272,86.9538622 C118.32605,33.7111849 186.226191,0 262,0 C268.352268,0 274.649202,0.236915481 280.882447,0.702392416 L152.396329,223.323585 L72.479272,86.9538591 L72.479272,86.9538622 Z M307.728906,4.17274197 C387.133781,18.8502669 453.380018,71.0524269 487.388379,141.7 L228.327507,141.7 L307.728906,4.17274197 L307.728906,4.17274197 Z" id="Shape"></path>
        </g>
    </g>
</svg>