<?xml version="1.0" encoding="UTF-8"?>
<svg width="331px" height="537px" viewBox="0 0 331 537" version="1.1" xmlns="http://www.w3.org/2000/svg" xmlns:xlink="http://www.w3.org/1999/xlink">
    <!-- Generator: Sketch 60 (88103) - https://sketch.com -->
    <title>Iceberg</title>
    <desc>Created with Sketch.</desc>
    <defs>
        <linearGradient x1="50%" y1="0%" x2="51.2518574%" y2="100%" id="linearGradient-1">
            <stop stop-color="#00D6FF" offset="0%"></stop>
            <stop stop-color="#00ACFF" offset="100%"></stop>
        </linearGradient>
    </defs>
    <g id="Portfolio" stroke="none" stroke-width="1" fill="none" fill-rule="evenodd">
        <g id="Desktop-HD-Copy-2" transform="translate(-216.000000, -94.000000)">
            <g id="Group-5">
                <g id="Iceberg" transform="translate(216.000000, 94.000000)">
                    <path d="M5.77669547,176.891471 L59.6730537,266.065445 L90.2600914,390.325286 L120.780412,372.60381 L170.064861,518.597365 L185.997962,448.668753 L212.514038,472.125281 L258.92914,322.243179 L293.813272,308.289527 L322.19238,201.626394 L325.859368,188.791937 L325.228414,185.637168 L281.741347,98.6630337 L229.437105,92.7417988 L159.062311,7.90643068 L113.233986,64.9580185 L49.6385609,97.7494096 L5.77669547,176.891471 Z" id="Path" stroke="#00ACFF" stroke-width="10" fill="#FFFFFF"></path>
                    <path d="M160.290505,1.03639874 L162.898451,3.13082788 L161.964451,4.29382788 L158.066,1.163 L160.290505,1.03639874 Z M163.781651,13.5954979 L170.174798,125.929202 L136.603375,143.568424 L188.223885,134.534835 L226.768539,188 L19.157351,188 L10.7219751,185.073661 L59.6730537,266.065445 L90.2600914,390.325286 L120.780412,372.60381 L170.064861,518.597365 L185.997962,448.668753 L212.514038,472.125281 L258.92914,322.243179 L293.813272,308.289527 L322.19238,201.626394 L325.859368,188.791937 L325.228414,185.637168 L281.741347,98.6630337 L229.437105,92.7417988 L163.781651,13.5954979 Z M0.136706093,177.075736 L0.206217941,176.875363 L0.88790293,176.463355 L4.80966685,178.636023 L4.37366685,179.423023 L0.136706093,177.075736 Z" id="Combined-Shape" stroke="#00ACFF" stroke-width="10" fill="url(#linearGradient-1)"></path>
                    <line x1="211.5" y1="188.5" x2="321.5" y2="188.5" id="Line-2" stroke="#00ACFF" stroke-width="9" stroke-linecap="square"></line>
                    <path d="M3.08,182.094 L329.386,182.771 L330,184 L331,189 L327,203 L298,312 L263,326 L215,481 L189,458 L171,537 L118,380 L87,398 L55,268 L3.08,182.094 Z" id="Combined-Shape" fill-opacity="0.1" fill="#000000"></path>
                </g>
            </g>
        </g>
    </g>
</svg>