<?xml version="1.0" encoding="UTF-8"?>
<svg width="1362px" height="520px" viewBox="0 0 1362 520" version="1.1" xmlns="http://www.w3.org/2000/svg" xmlns:xlink="http://www.w3.org/1999/xlink">
    <!-- Generator: Sketch 60 (88103) - https://sketch.com -->
    <title>Group 7</title>
    <desc>Created with Sketch.</desc>
    <g id="Portfolio" stroke="none" stroke-width="1" fill="none" fill-rule="evenodd">
        <g id="Desktop-HD-Copy-2" transform="translate(-49.000000, -111.000000)">
            <g id="Group-5">
                <g id="Group-7" transform="translate(49.457209, 105.573543)">
                    <rect id="Rectangle" fill="#FF4C4C" opacity="0.93" transform="translate(258.873503, 317.969988) rotate(-14.000000) translate(-258.873503, -317.969988) " x="248.873503" y="307.969988" width="20" height="20"></rect>
                    <rect id="Rectangle" fill="#FF4C4C" opacity="0.87" transform="translate(1176.042791, 510.926457) rotate(-22.000000) translate(-1176.042791, -510.926457) " x="1165.54279" y="500.426457" width="21" height="21"></rect>
                    <polygon id="Triangle" fill="#BB56DF" opacity="0.73" transform="translate(1257.101757, 179.813292) rotate(-291.000000) translate(-1257.101757, -179.813292) " points="1257.10176 169.313292 1267.60176 190.313292 1246.60176 190.313292"></polygon>
                    <polygon id="Triangle" fill="#BB56DF" opacity="0.79" transform="translate(1246.365692, 19.699061) rotate(-269.000000) translate(-1246.365692, -19.699061) " points="1246.36569 10.6990612 1255.36569 28.6990612 1237.36569 28.6990612"></polygon>
                    <polygon id="Triangle" fill="#BB56DF" opacity="0.88" transform="translate(904.061458, 460.818145) rotate(-31.000000) translate(-904.061458, -460.818145) " points="904.061458 453.318145 911.561458 468.318145 896.561458 468.318145"></polygon>
                    <polygon id="Triangle" fill="#BB56DF" opacity="0.75" transform="translate(980.280976, 63.262738) rotate(-213.000000) translate(-980.280976, -63.262738) " points="980.280976 54.7627385 988.780976 71.7627385 971.780976 71.7627385"></polygon>
                    <polygon id="Triangle" fill="#BB56DF" opacity="0.91" transform="translate(398.791050, 479.237081) rotate(-14.000000) translate(-398.791050, -479.237081) " points="398.79105 471.737081 406.29105 486.737081 391.29105 486.737081"></polygon>
                    <polygon id="Triangle" fill="#BB56DF" opacity="0.73" transform="translate(13.500000, 363.567782) rotate(-323.000000) translate(-13.500000, -363.567782) " points="13.5 354.067782 23 373.067782 4 373.067782"></polygon>
                    <path d="M1355.96814,404.108852 L1355.96814,409.857852 L1361.71814,409.858852 L1361.71814,413.358852 L1355.96814,413.358852 L1355.96814,419.108852 L1352.46814,419.108852 L1352.46814,413.358852 L1346.71814,413.358852 L1346.71814,409.858852 L1352.46814,409.858852 L1352.46814,404.108852 L1355.96814,404.108852 Z" id="Combined-Shape" fill="#00AD1E" opacity="0.86" transform="translate(1354.218139, 411.608852) rotate(-132.000000) translate(-1354.218139, -411.608852) "></path>
                    <path d="M605.132104,166.650528 L605.131771,173.166528 L611.648771,173.167195 L611.648771,177.133862 L605.131771,177.133528 L605.132104,183.650528 L601.165438,183.650528 L601.164771,177.133528 L594.648771,177.133862 L594.648771,173.167195 L601.164771,173.166528 L601.165438,166.650528 L605.132104,166.650528 Z" id="Combined-Shape" fill="#00AD1E" opacity="0.82" transform="translate(603.148771, 175.150528) rotate(-6.000000) translate(-603.148771, -175.150528) "></path>
                    <path d="M643.584371,5 L643.584371,13.049 L651.634371,13.05 L651.634371,17.95 L643.584371,17.949 L643.584371,26 L638.684371,26 L638.684371,17.949 L630.634371,17.95 L630.634371,13.05 L638.684371,13.05 L638.684371,5 L643.584371,5 Z" id="Combined-Shape" fill="#00AD1E" transform="translate(641.134371, 15.500000) rotate(-137.000000) translate(-641.134371, -15.500000) "></path>
                </g>
            </g>
        </g>
    </g>
</svg>